<svg width="22" height="25" viewBox="0 0 22 25" fill="none" xmlns="http://www.w3.org/2000/svg">
<path d="M11 0C12.0902 0 13.4567 0.138111 14.5946 0.523111C15.1617 0.713778 15.7557 0.993667 16.2274 1.419C16.7237 1.86511 17.1111 2.50311 17.1111 3.31711C17.1111 4.10178 16.7518 4.74956 16.3203 5.23111C16.0782 5.49798 15.8063 5.73624 15.51 5.94122C19.1583 7.68044 22 11.4094 22 15.8889C22 19.0129 20.7533 21.2496 18.6193 22.6417C16.5721 23.9763 13.8478 24.4444 11 24.4444C8.15222 24.4444 5.42667 23.9763 3.38067 22.6417C1.24667 21.2496 0 19.0117 0 15.8889C0 11.4094 2.84167 7.68044 6.49 5.94122C6.1937 5.73665 5.92182 5.4988 5.67967 5.23233C5.24822 4.74833 4.88889 4.10056 4.88889 3.31589C4.88889 2.50189 5.27633 1.86389 5.77256 1.41778C6.24433 0.992445 6.83833 0.712556 7.40544 0.521889C8.54333 0.138111 9.90978 0 11 0ZM11 7.33333C6.73689 7.33333 2.44444 11.1124 2.44444 15.8889C2.44444 18.2649 3.33667 19.6949 4.71656 20.5944C6.18322 21.5514 8.34778 22 11 22C13.6522 22 15.8156 21.5514 17.2834 20.5944C18.6633 19.6949 19.5556 18.2649 19.5556 15.8889C19.5556 11.1124 15.2631 7.33333 11 7.33333ZM11 2.44444C10.065 2.44444 8.987 2.56789 8.18767 2.838C7.78433 2.97489 7.53622 3.11911 7.40789 3.23522L7.34433 3.30244C7.34033 3.30792 7.33666 3.31364 7.33333 3.31956L7.34189 3.35867C7.37787 3.45001 7.43191 3.53315 7.50078 3.60311C7.67189 3.79378 7.95911 4.01133 8.35878 4.21789C9.16544 4.63589 10.1958 4.88889 11 4.88889C11.8042 4.88889 12.8358 4.63589 13.6412 4.21789C14.0409 4.01133 14.3269 3.79378 14.4992 3.60189C14.568 3.53228 14.622 3.44957 14.6581 3.35867L14.6667 3.31956L14.6324 3.27556C14.6196 3.26149 14.6062 3.24803 14.5921 3.23522C14.4638 3.12033 14.2157 2.97489 13.8123 2.838C13.013 2.56911 11.935 2.44444 11 2.44444Z" fill="#65727A"/>
<path d="M8.79619 11.7374H10.353V15.726C10.3511 16.1048 10.2555 16.4381 10.0661 16.726C9.87858 17.012 9.61911 17.2355 9.28767 17.3965C8.95812 17.5555 8.57839 17.6351 8.14846 17.6351C7.77536 17.6351 7.43445 17.5707 7.12574 17.4419C6.81703 17.3112 6.57081 17.1067 6.3871 16.8283C6.20339 16.548 6.11248 16.1843 6.11437 15.7374H7.69392C7.6996 15.8832 7.72422 16.0063 7.76778 16.1067C7.81324 16.2071 7.87574 16.2828 7.95528 16.334C8.03672 16.3832 8.13521 16.4078 8.25074 16.4078C8.36816 16.4078 8.46665 16.3822 8.54619 16.3311C8.62763 16.28 8.68918 16.2042 8.73085 16.1038C8.77252 16.0016 8.7943 15.8756 8.79619 15.726V11.7374ZM11.1016 17.5555V11.7374H13.613C14.0448 11.7374 14.4226 11.8226 14.7465 11.993C15.0703 12.1635 15.3222 12.4031 15.5022 12.7118C15.6821 13.0205 15.772 13.3813 15.772 13.7942C15.772 14.2108 15.6792 14.5716 15.4936 14.8766C15.3099 15.1815 15.0514 15.4163 14.7181 15.5811C14.3866 15.7459 13.9993 15.8283 13.5561 15.8283H12.0561V14.601H13.238C13.4236 14.601 13.5817 14.5688 13.7124 14.5044C13.845 14.4381 13.9463 14.3444 14.0164 14.2232C14.0883 14.1019 14.1243 13.959 14.1243 13.7942C14.1243 13.6275 14.0883 13.4855 14.0164 13.368C13.9463 13.2487 13.845 13.1578 13.7124 13.0953C13.5817 13.0309 13.4236 12.9987 13.238 12.9987H12.6811V17.5555H11.1016Z" fill="#65727A"/>
</svg>
