<svg width="17" height="16" viewBox="0 0 17 16" fill="none" xmlns="http://www.w3.org/2000/svg">
<path d="M14.8025 13.1252C15.9332 11.6053 16.4661 9.72134 16.2995 7.83274C16.1697 6.28979 15.6004 4.81673 14.6592 3.58888C13.7181 2.36103 12.4448 1.4301 10.9909 0.906902C9.23382 0.27615 7.31279 0.27615 5.55567 0.906902C4.61005 1.21788 3.74351 1.73196 3.01653 2.41327C1.91712 3.82369 1.32293 5.5638 1.32952 7.3537V7.53262C1.37618 9.64444 2.246 11.654 3.75266 13.1308C5.25932 14.6077 7.28302 15.4344 9.3903 15.4338C11.9122 15.4338 14.1174 14.1583 14.8025 13.2003V13.1252Z" fill="#00A8CC"/>
<path d="M9.28662 3.86469C9.19321 3.79337 9.08052 3.75493 8.96484 3.75493C8.84915 3.75493 8.73647 3.79337 8.64306 3.86469L5.98704 5.88217C5.89396 5.95322 5.82482 6.05327 5.78955 6.16795C5.75428 6.28263 5.75468 6.40604 5.79071 6.52046L6.7833 9.78034C6.82029 9.89937 6.89373 10.0024 6.9923 10.0734C7.09086 10.1445 7.20908 10.1797 7.32869 10.1736H10.601C10.716 10.1735 10.828 10.1354 10.9211 10.0648C11.0141 9.99416 11.0835 9.8946 11.1191 9.78034L12.1335 6.52046C12.1695 6.40604 12.1699 6.28263 12.1347 6.16795C12.0994 6.05327 12.0303 5.95322 11.9372 5.88217L9.28662 3.86469ZM10.1647 0.838473C9.42763 0.572907 8.65371 0.436194 7.87407 0.433838C7.68319 0.433838 7.4923 0.433838 7.30142 0.433838L8.96484 1.82442L10.1647 0.838473ZM2.92199 2.44562C1.83954 3.91116 1.27847 5.72444 1.33492 7.5748H1.32947L3.91459 5.61431L2.92744 2.43992L2.92199 2.44562ZM2.56204 11.8149L2.38206 12.3848C3.3808 13.8099 4.78022 14.8738 6.38517 15.4281L6.8542 15.0691L5.84524 11.8092L2.56204 11.8149ZM14.0914 13.0972V13.0231L14.2114 12.892C14.4343 12.5446 14.6295 12.1786 14.795 11.7978H12.0681L11.0755 15.0748L11.5445 15.4338H11.5827C12.574 14.8584 13.4308 14.0604 14.0914 13.0972ZM14.0151 5.58011L15.3295 6.57176C15.1422 5.76666 14.8348 4.99738 14.4187 4.29212L14.0151 5.58011Z" fill="#1F9A1E"/>
<path d="M12.1238 6.08488L9.63326 3.57063C9.54567 3.48174 9.44 3.43384 9.33152 3.43384C9.22304 3.43384 9.11737 3.48174 9.02979 3.57063L6.53919 6.08488C6.45191 6.17343 6.38708 6.29812 6.354 6.44104C6.32092 6.58395 6.3213 6.73775 6.35509 6.88035L7.28586 10.9429C7.32054 11.0913 7.38941 11.2196 7.48183 11.3082C7.57426 11.3968 7.68511 11.4406 7.79728 11.433H10.8658C10.9736 11.4329 11.0787 11.3854 11.1659 11.2974C11.2532 11.2094 11.3182 11.0853 11.3516 10.9429L12.3028 6.88035C12.3372 6.73848 12.3383 6.58517 12.3062 6.44232C12.274 6.29947 12.2102 6.17437 12.1238 6.08488ZM10.4975 10.0125H8.16549L7.4444 6.93006L9.33152 5.04083L11.2186 6.94427L10.4975 10.0125Z" fill="#000839"/>
<path d="M15.1096 3.33298C14.3755 2.32248 13.4141 1.49534 12.3015 0.917076C11.189 0.338816 9.9558 0.0253352 8.69978 0.00147272C7.44377 -0.0223898 6.1994 0.244021 5.06529 0.779597C3.93117 1.31517 2.93847 2.1052 2.16584 3.08707C1.44844 4.02785 0.939375 5.1081 0.671915 6.25721C0.641162 6.399 0.66849 6.54708 0.747887 6.66889C0.827285 6.79071 0.952247 6.87626 1.09529 6.90675C1.23832 6.93723 1.38772 6.91014 1.51061 6.83144C1.6335 6.75274 1.71981 6.62887 1.75056 6.48709C1.8827 5.85093 2.10227 5.23576 2.40315 4.65878L2.90472 6.18772L2.06337 6.79716C1.94881 6.88053 1.87207 7.00536 1.84986 7.14451C1.82764 7.28366 1.86173 7.42587 1.94472 7.54024C2.02802 7.65465 2.15357 7.73177 2.294 7.7548C2.43443 7.77784 2.57835 7.74491 2.69438 7.6632L3.85393 6.82923C3.94803 6.76296 4.0182 6.66852 4.05412 6.55978C4.09004 6.45104 4.08982 6.33374 4.05348 6.22514L3.17438 3.55216C3.91194 2.68455 4.85258 2.00912 5.91415 1.58486L8.21707 3.25279C8.30943 3.31969 8.42087 3.35575 8.53527 3.35575C8.64967 3.35575 8.7611 3.31969 8.85347 3.25279L11.1564 1.58486C12.2279 1.99998 13.18 2.67011 13.9285 3.53613L13.0494 6.2091C13.0138 6.31643 13.0134 6.4322 13.0483 6.53977C13.0832 6.64734 13.1515 6.74119 13.2436 6.80785L15.5465 8.48647C15.4701 9.62487 15.1107 10.7268 14.5002 11.694H11.6256C11.5119 11.6941 11.4011 11.7298 11.3091 11.7961C11.217 11.8623 11.1485 11.9557 11.1132 12.0629L10.2341 14.7359C9.11891 15.0138 7.95163 15.0138 6.8364 14.7359L5.9573 12.0629C5.92073 11.9513 5.8481 11.8547 5.75063 11.788C5.65316 11.7213 5.53626 11.6883 5.41797 11.694H2.6027C2.17061 11.0212 1.86373 10.277 1.69663 9.49686C1.66802 9.35507 1.58377 9.23036 1.4624 9.15016C1.34102 9.06995 1.19248 9.04083 1.04944 9.06918C0.906405 9.09754 0.78059 9.18106 0.699675 9.30137C0.618761 9.42167 0.589375 9.56891 0.617983 9.7107C0.876597 10.8712 1.39222 11.9602 2.12754 12.8989C2.86286 13.8377 3.7995 14.6027 4.86969 15.1386C5.93988 15.6744 7.11686 15.9678 8.31548 15.9975C9.5141 16.0272 10.7044 15.7924 11.8002 15.3101C12.8961 14.8278 13.8701 14.1101 14.6517 13.2089C15.4334 12.3078 16.0032 11.2456 16.3199 10.0993C16.6367 8.95309 16.6924 7.75137 16.4831 6.58114C16.2737 5.41091 15.8046 4.30144 15.1096 3.33298ZM9.85122 1.1946L8.53527 2.11945L7.21932 1.17856C8.0889 1.01541 8.98164 1.01541 9.85122 1.17856V1.1946ZM5.49348 14.2601C4.73225 13.9015 4.04184 13.4108 3.45483 12.8113L3.42247 12.7739H5.04045L5.54202 14.3136L5.49348 14.2601ZM13.6157 12.8113C13.0318 13.4214 12.3411 13.9213 11.5771 14.2868L11.5177 14.3136L12.0193 12.7739H13.6373L13.6157 12.8113ZM15.4872 7.16068L14.1712 6.21445L14.6728 4.67481C15.1027 5.43436 15.3793 6.26961 15.4872 7.13395V7.16068Z" fill="#000839"/>
</svg>
