<svg width="25" height="25" viewBox="0 0 25 25" fill="none" xmlns="http://www.w3.org/2000/svg">
<path d="M12.3698 0.832031C5.84566 0.832031 0.537842 6.13985 0.537842 12.664C0.537842 19.1881 5.84566 24.4959 12.3698 24.4959C18.8939 24.4959 24.2017 19.1881 24.2017 12.664C24.2017 6.13985 18.8939 0.832031 12.3698 0.832031ZM22.6854 11.9246H17.5827C17.7419 9.6562 18.6282 7.5414 20.1341 5.83868C21.5866 7.48926 22.5195 9.59963 22.6854 11.9246ZM13.1097 11.9246V2.34839C15.3814 2.51034 17.4513 3.40219 19.0847 4.79875C17.3049 6.78211 16.2677 9.26353 16.1041 11.9246H13.1097ZM11.6305 11.9246H8.636C8.47294 9.26353 7.43523 6.78211 5.65542 4.79875C7.2888 3.40219 9.35869 2.51034 11.6305 2.34839V11.9246ZM11.6305 13.4038V22.9801C9.35869 22.8181 7.2888 21.9263 5.65542 20.5297C7.43467 18.5464 8.47239 16.065 8.636 13.4038H11.6305ZM13.1097 13.4038H16.1041C16.2672 16.065 17.3049 18.5464 19.0847 20.5297C17.4513 21.9263 15.3814 22.8181 13.1097 22.9801V13.4038ZM4.6055 5.83868C6.11132 7.5414 6.99763 9.6562 7.1568 11.9246H2.0542C2.21948 9.59963 3.15292 7.48926 4.6055 5.83868ZM2.0542 13.4038H7.1568C6.99763 15.6723 6.11132 17.7871 4.6055 19.4898C3.15292 17.8392 2.22004 15.7289 2.0542 13.4038ZM20.1346 19.4898C18.6288 17.7871 17.7425 15.6723 17.5833 13.4038H22.6859C22.5206 15.7289 21.5872 17.8392 20.1346 19.4898Z" fill="#F9B829"/>
</svg>
