<svg width="14" height="18" viewBox="0 0 14 18" fill="none" xmlns="http://www.w3.org/2000/svg">
<path d="M13.5951 8.16205C13.4896 7.57626 13.2846 7.01285 12.989 6.49623C12.3717 5.42498 11.8549 5.42093 11.8472 5.42093C11.4177 9.5056 11.3253 8.90804 11.3253 8.90804C11.3028 7.69819 10.021 5.98218 9.59538 5.44506C9.46382 5.28027 9.34543 5.10539 9.24129 4.92204C7.79053 2.3445 9.27396 0.0127869 9.27396 0.0127869C4.44459 1.20876 3.21188 5.05466 3.09357 6.32196C2.86975 5.85212 2.2912 4.47098 2.2912 4.47098C0.87205 6.39308 0.564087 10.4109 0.564087 10.4901C0.564087 10.4976 0.564087 10.5049 0.564087 10.5115C0.564087 10.5636 0.569853 10.8318 0.577114 10.9027C0.791322 14.3602 3.66208 17.0981 7.17268 17.0981C10.8221 17.0981 13.7806 14.1396 13.7806 10.4901C13.7806 10.3921 13.6995 8.73206 13.5951 8.16205ZM7.17631 16.2438C5.2115 16.2438 3.61851 14.6903 3.61851 12.7253C3.61851 11.108 4.65944 9.95665 4.65944 9.95665C4.5802 11.7312 5.23372 11.9001 5.23372 11.9001C6.46236 10.2793 6.04527 7.04425 6.04527 7.04425C8.64522 7.68857 9.80404 9.44452 9.80404 9.44452C10.5682 10.4792 10.7269 12.0308 10.7269 12.9077C10.6705 13.8111 10.2719 14.659 9.6122 15.2788C8.95255 15.8987 8.08147 16.2437 7.17631 16.2438Z" fill="#BA1616"/>
<path d="M10.2996 12.8951C10.1916 14.5353 8.82219 15.8167 7.17623 15.8167C6.33627 15.8167 5.54928 15.4964 4.96005 14.9172C4.66891 14.6315 4.43799 14.2903 4.28092 13.9138C4.12385 13.5374 4.04382 13.1332 4.04556 12.7253C4.04556 12.1829 4.17925 11.6951 4.34455 11.2983C4.56154 12.1158 5.0081 12.2839 5.12535 12.3144L5.40107 12.386L5.5732 12.159C6.55689 10.8613 6.58081 8.70238 6.52208 7.63135C8.52661 8.31732 9.43683 9.66663 9.44665 9.68158L9.45285 9.69098L9.45947 9.69995C10.2322 10.7441 10.2986 12.3924 10.2996 12.8951Z" fill="#245F75"/>
<path d="M10.2996 12.8951C10.1916 14.5353 8.82219 15.8167 7.17623 15.8167C6.33627 15.8167 5.54928 15.4964 4.96005 14.9172C4.66891 14.6315 4.43799 14.2903 4.28092 13.9138C4.12385 13.5374 4.04382 13.1332 4.04556 12.7253C4.04556 12.1829 4.17925 11.6951 4.34455 11.2983C4.56154 12.1158 5.0081 12.2839 5.12535 12.3144L5.40107 12.386L5.5732 12.159C6.55689 10.8613 6.58081 8.70238 6.52208 7.63135C8.52661 8.31732 9.43683 9.66663 9.44665 9.68158L9.45285 9.69098L9.45947 9.69995C10.2322 10.7441 10.2986 12.3924 10.2996 12.8951Z" fill="#E28F0E"/>
</svg>
