<svg width="25" height="25" viewBox="0 0 25 25" fill="none" xmlns="http://www.w3.org/2000/svg">
<path d="M12.6134 0.832031C6.08931 0.832031 0.781494 6.13985 0.781494 12.664C0.781494 19.1881 6.08931 24.4959 12.6134 24.4959C19.1376 24.4959 24.4454 19.1881 24.4454 12.664C24.4454 6.13985 19.1376 0.832031 12.6134 0.832031ZM20.4226 11.9912L17.3539 10.2236V6.59243L19.6167 5.94905L20.3012 5.75382C21.3156 6.88139 22.0898 8.22636 22.533 9.7161L22.02 10.2674L20.4226 11.9906V11.9912ZM16.5996 18.9352L13.3827 17.0788V13.3589L16.5996 11.4954L19.8236 13.3589V17.0788L16.5996 18.9352ZM8.67944 18.9352L5.45537 17.0788V13.3589L8.67944 11.4954L11.9035 13.3589V17.0788L8.67944 18.9352ZM4.85637 11.9912L3.21466 10.2386L2.70107 9.69003C3.15143 8.19253 3.93679 6.84256 4.96286 5.71389L5.64782 5.91245L7.94788 6.58521H7.94954V10.2075L7.94788 10.2086L4.85692 11.9906L4.85637 11.9912ZM16.7149 5.23801L13.3899 3.31844V2.35006C15.5197 2.50924 17.4703 3.31124 19.0488 4.56858L18.2779 4.78822L16.7144 5.23801H16.7149ZM11.9113 3.32343L8.63784 5.24579L6.98615 4.76658L6.21355 4.54306C7.80423 3.28682 9.76817 2.49204 11.9113 2.34729V3.32398V3.32343ZM9.42819 10.2175V6.49647L12.655 4.60185L15.8747 6.46098V10.2092L12.6434 12.0727L9.42819 10.2175ZM2.33557 11.4654L2.93346 12.1021L3.97617 13.2186V17.0494L3.96119 17.0566L3.39048 17.3434C2.67334 15.9357 2.26014 14.3489 2.26014 12.664C2.26014 12.258 2.28953 11.8592 2.33557 11.4654ZM4.15587 18.6157L4.6933 18.3434L4.78926 18.4027L8.05048 20.2813L8.39047 21.4055L8.63396 22.2197C6.82198 21.4621 5.27456 20.2008 4.15531 18.6157H4.15587ZM10.3428 22.7582L10.1292 22.0483L9.55242 20.1404L12.6434 18.3584L15.7271 20.1404L15.1575 22.0261L14.944 22.7427C14.1936 22.9163 13.416 23.0167 12.614 23.0167C11.812 23.0167 11.0749 22.9224 10.3428 22.7577V22.7582ZM16.6523 22.1964L16.8952 21.3755H16.9024L17.228 20.2813L20.4004 18.4549L20.5851 18.3439L21.0832 18.5996C19.9756 20.1759 18.4454 21.4343 16.6517 22.197L16.6523 22.1964ZM21.8425 17.3317L21.3028 17.0572V13.2264L22.3012 12.1465L22.8968 11.5015C22.9395 11.8836 22.9667 12.2707 22.9667 12.6645C22.9667 14.3445 22.5557 15.9274 21.8425 17.3317Z" fill="#F9B829"/>
</svg>
