<svg width="19" height="17" viewBox="0 0 19 17" fill="none" xmlns="http://www.w3.org/2000/svg">
<path d="M3.53443 10.5684L3.53434 10.5684C3.38146 10.4668 3.17636 10.5081 3.07497 10.6602L0.262473 14.8789C0.194911 14.9803 0.188255 15.1111 0.245933 15.2188C0.303579 15.3265 0.415871 15.3937 0.538076 15.3937H17.9756C18.0979 15.3937 18.2101 15.3262 18.2677 15.2186C18.3254 15.1108 18.3187 14.9803 18.2512 14.8787L18.2512 14.8787L15.4387 10.6599C15.3373 10.5079 15.1316 10.4665 14.9792 10.5682C14.8269 10.6698 14.7858 10.8752 14.8875 11.0276L17.3568 14.7312H1.15688L3.62616 11.0279C3.62617 11.0279 3.62617 11.0279 3.62618 11.0279C3.72785 10.8755 3.68674 10.6701 3.53443 10.5684Z" fill="#000839" stroke="#000839" stroke-width="0.1"/>
<path d="M0.538086 16.5688H17.9756C18.1863 16.5688 18.3568 16.3983 18.3568 16.1875V15.0625C18.3568 14.8517 18.1863 14.6812 17.9756 14.6812H0.538086C0.327326 14.6812 0.156836 14.8517 0.156836 15.0625V16.1875C0.156836 16.3983 0.327326 16.5688 0.538086 16.5688ZM17.5943 15.4438V15.8062H0.919336V15.4438H17.5943Z" fill="#000839" stroke="#000839" stroke-width="0.2"/>
<path d="M14.6109 12.717L14.6108 12.7169C14.6108 12.717 14.6109 12.717 14.6109 12.717ZM14.6109 12.717L14.6109 12.7171C14.6109 12.7171 14.6109 12.717 14.6109 12.717ZM5.91911 13.6564V13.6564ZM2.82957 14.9682C2.82957 14.9682 2.82958 14.9682 2.82958 14.9682L2.82957 14.9682ZM4.30415 11.8745L4.3041 11.8746L4.30415 11.8745ZM15.2892 15.1568C15.2892 15.1567 15.2891 15.1566 15.2891 15.1565L15.2892 15.1568L15.2892 15.1568ZM15.1475 13.8429C15.1476 13.8431 15.1477 13.8432 15.1477 13.8433L15.1476 13.843L15.1475 13.8429ZM13.6732 10.7497C13.6733 10.7498 13.6733 10.7499 13.6734 10.75L13.6733 10.7499L13.6732 10.7497ZM13.2783 10.9381L13.2783 10.9381C13.2783 10.9381 13.2783 10.9381 13.2783 10.9381ZM12.384 13.7165C12.384 13.7165 12.384 13.7165 12.384 13.7164L12.384 13.7165Z" stroke="#000839"/>
<path d="M4.502 12.25H2.60046C2.44493 12.25 2.31921 12.1243 2.31921 11.9688C2.31921 11.8132 2.44493 11.6875 2.60046 11.6875H4.502C4.65753 11.6875 4.78325 11.8132 4.78325 11.9688C4.78325 12.1243 4.65725 12.25 4.502 12.25ZM17.2255 14.2188H14.9504C14.7949 14.2188 14.6692 14.093 14.6692 13.9375C14.6692 13.782 14.7949 13.6562 14.9504 13.6562H17.2255C17.381 13.6562 17.5067 13.782 17.5067 13.9375C17.5067 14.093 17.381 14.2188 17.2255 14.2188ZM16.4757 13.0938H14.4141C14.2586 13.0938 14.1328 12.968 14.1328 12.8125C14.1328 12.657 14.2586 12.5312 14.4141 12.5312H16.4757C16.6312 12.5312 16.7569 12.657 16.7569 12.8125C16.7569 12.968 16.6312 13.0938 16.4757 13.0938ZM8.69431 12.5312H6.32225C6.16671 12.5312 6.041 12.4055 6.041 12.25C6.041 12.0945 6.16671 11.9688 6.32225 11.9688H8.69431C8.84984 11.9688 8.97556 12.0945 8.97556 12.25C8.97556 12.4055 8.84984 12.5312 8.69431 12.5312ZM12.1914 12.5312H9.84546C9.68993 12.5312 9.56421 12.4055 9.56421 12.25C9.56421 12.0945 9.68993 11.9688 9.84546 11.9688H12.1914C12.3469 11.9688 12.4726 12.0945 12.4726 12.25C12.4726 12.4055 12.3466 12.5312 12.1914 12.5312ZM12.5944 13.9375H5.91921C5.76368 13.9375 5.63796 13.8118 5.63796 13.6562C5.63796 13.5007 5.76368 13.375 5.91921 13.375H12.5944C12.7499 13.375 12.8757 13.5007 12.8757 13.6562C12.8757 13.8118 12.7499 13.9375 12.5944 13.9375Z" fill="#1F9A1E"/>
<path d="M6.76834 10.6522C7.83069 12.0588 8.91486 13.0196 9.00553 13.0992L9.07149 13.024C9.12437 13.0704 9.19074 13.0938 9.25684 13.0938C9.32293 13.0938 9.3893 13.0704 9.44218 13.024L9.50812 13.0992C9.50812 13.0992 9.50813 13.0992 9.50814 13.0992C9.59881 13.0196 10.683 12.0588 11.7453 10.6522C12.8054 9.24868 13.8568 7.38419 13.8568 5.5C13.8568 2.96358 11.7933 0.9 9.25684 0.9C6.72042 0.9 4.65684 2.96358 4.65684 5.5C4.65684 7.38419 5.70831 9.24868 6.76834 10.6522ZM5.41934 5.5C5.41934 3.38398 7.14081 1.6625 9.25684 1.6625C11.3729 1.6625 13.0943 3.38398 13.0943 5.5C13.0943 6.97809 12.3254 8.50004 11.4449 9.75548C10.6132 10.9414 9.69143 11.8763 9.25685 12.2923C8.82225 11.8762 7.90046 10.9413 7.06874 9.75537C6.18826 8.49996 5.41934 6.97809 5.41934 5.5Z" fill="#000839" stroke="#000839" stroke-width="0.2"/>
<path d="M7.40818 11.125H3.35059C3.19505 11.125 3.06934 10.9993 3.06934 10.8438C3.06934 10.6882 3.19505 10.5625 3.35059 10.5625H7.40818C7.56371 10.5625 7.68943 10.6882 7.68943 10.8438C7.68943 10.9993 7.56343 11.125 7.40818 11.125ZM15.1631 11.125H11.1052C10.9497 11.125 10.824 10.9993 10.824 10.8438C10.824 10.6882 10.9497 10.5625 11.1052 10.5625H15.1631C15.3186 10.5625 15.4443 10.6882 15.4443 10.8438C15.4443 10.9993 15.3186 11.125 15.1631 11.125Z" fill="#000839"/>
<path d="M7.56909 8.3125C7.1039 8.3125 6.72534 7.93394 6.72534 7.46875C6.72534 7.00356 7.1039 6.625 7.56909 6.625C8.03428 6.625 8.41284 7.00356 8.41284 7.46875C8.41284 7.93394 8.03428 8.3125 7.56909 8.3125ZM7.56909 7.1875C7.41384 7.1875 7.28784 7.31378 7.28784 7.46875C7.28784 7.62372 7.41384 7.75 7.56909 7.75C7.72434 7.75 7.85034 7.62372 7.85034 7.46875C7.85034 7.31378 7.72434 7.1875 7.56909 7.1875ZM10.3813 7.75C9.91612 7.75 9.53756 7.37144 9.53756 6.90625C9.53756 6.44106 9.91612 6.0625 10.3813 6.0625C10.8465 6.0625 11.2251 6.44106 11.2251 6.90625C11.2251 7.37144 10.8465 7.75 10.3813 7.75ZM10.3813 6.625C10.2261 6.625 10.1001 6.75128 10.1001 6.90625C10.1001 7.06122 10.2261 7.1875 10.3813 7.1875C10.5366 7.1875 10.6626 7.06122 10.6626 6.90625C10.6626 6.75128 10.5366 6.625 10.3813 6.625Z" fill="#000839"/>
<path d="M8.13147 7.75C7.97594 7.75 7.85022 7.624 7.85022 7.46875V4.65625C7.85022 4.501 7.97594 4.375 8.13147 4.375C8.287 4.375 8.41272 4.501 8.41272 4.65625V7.46875C8.41272 7.624 8.287 7.75 8.13147 7.75ZM10.9437 7.1875C10.7882 7.1875 10.6624 7.0615 10.6624 6.90625V4.09375C10.6624 3.9385 10.7882 3.8125 10.9437 3.8125C11.0992 3.8125 11.2249 3.9385 11.2249 4.09375V6.90625C11.2249 7.0615 11.0992 7.1875 10.9437 7.1875Z" fill="#000839"/>
<path d="M8.1313 4.9375C7.99995 4.9375 7.88239 4.84497 7.85595 4.71138C7.82558 4.55894 7.9243 4.411 8.07645 4.38034L10.8887 3.81785C11.0425 3.78719 11.189 3.88647 11.2197 4.03835C11.2501 4.19078 11.1514 4.33872 10.9992 4.36938L8.18699 4.93188C8.16814 4.93553 8.14958 4.9375 8.1313 4.9375Z" fill="#000839"/>
</svg>
