<svg width="29" height="25" viewBox="0 0 29 25" fill="none" xmlns="http://www.w3.org/2000/svg">
<path d="M27.2075 12.1496H27.1017C26.8589 12.1496 26.6225 12.0679 26.4301 11.9224C26.4296 11.9221 26.4291 11.9217 26.4286 11.9214L14.4719 3.11247L2.51233 11.9234L2.50368 11.9298L2.49451 11.9354C1.94139 12.2738 1.23292 12.0828 0.909775 11.5203C0.627242 11.0289 0.726516 10.4005 1.15172 10.0261L1.15985 10.019L1.16856 10.0126L13.7982 0.699565L27.2075 12.1496ZM27.2075 12.1496L27.2169 12.1399M27.2075 12.1496L27.2169 12.1399M27.2169 12.1399C27.5426 12.1045 27.8412 11.9284 28.0341 11.6534C28.4027 11.1286 28.2879 10.3931 27.7766 10.0105L27.7751 10.0094L15.1424 0.699565C15.1424 0.699538 15.1423 0.699511 15.1423 0.699483L15.1422 0.699412L27.2169 12.1399Z" fill="#65727A" stroke="#65727A" stroke-width="0.5"/>
<path d="M18.0659 24.253H22.526H22.5321C24.1381 24.253 25.4569 22.9892 25.4569 21.4105V12.7648C25.4569 12.1427 24.9368 11.6496 24.3143 11.6496C23.6918 11.6496 23.1716 12.1427 23.1716 12.7648V21.4105C23.1716 21.7418 22.8902 22.0257 22.529 22.0257H19.2116V16.2225C19.2116 15.6004 18.6915 15.1073 18.069 15.1073H10.931C10.3085 15.1073 9.7884 15.6004 9.7884 16.2225V22.0257H6.47095C6.10975 22.0257 5.82833 21.7418 5.82833 21.4105V12.7648C5.82833 12.1427 5.30822 11.6496 4.68571 11.6496C4.06321 11.6496 3.54309 12.1427 3.54309 12.7648V21.4105C3.54309 22.9859 4.85849 24.253 6.46792 24.253H10.928C11.5505 24.253 12.0706 23.76 12.0706 23.1379V17.3347H16.9233V23.1379C16.9233 23.76 17.4434 24.253 18.0659 24.253Z" fill="#65727A" stroke="#65727A" stroke-width="0.5"/>
</svg>
