<svg width="25" height="31" viewBox="0 0 25 31" fill="none" xmlns="http://www.w3.org/2000/svg">
<path d="M21.3913 17.2208V12.5833C21.3891 10.517 20.624 8.51814 19.2314 6.94067C17.8388 5.3632 15.9086 4.30892 13.7826 3.96454V2.37496C13.7826 1.98819 13.6223 1.61725 13.3369 1.34376C13.0515 1.07027 12.6645 0.916626 12.2609 0.916626C11.8573 0.916626 11.4702 1.07027 11.1848 1.34376C10.8995 1.61725 10.7391 1.98819 10.7391 2.37496V3.96454C8.61317 4.30892 6.68298 5.3632 5.29037 6.94067C3.89777 8.51814 3.13262 10.517 3.13044 12.5833V17.2208C2.24243 17.5217 1.47326 18.0784 0.928388 18.8147C0.383514 19.5509 0.0896069 20.4307 0.0869598 21.3333V24.25C0.0869598 24.6367 0.247286 25.0077 0.532667 25.2812C0.818049 25.5546 1.20511 25.7083 1.6087 25.7083H6.38696C6.73739 26.944 7.5024 28.0349 8.56396 28.8127C9.62551 29.5905 10.9246 30.0118 12.2609 30.0118C13.5971 30.0118 14.8962 29.5905 15.9578 28.8127C17.0194 28.0349 17.7844 26.944 18.1348 25.7083H22.913C23.3166 25.7083 23.7037 25.5546 23.9891 25.2812C24.2745 25.0077 24.4348 24.6367 24.4348 24.25V21.3333C24.4321 20.4307 24.1382 19.5509 23.5934 18.8147C23.0485 18.0784 22.2793 17.5217 21.3913 17.2208ZM6.17392 12.5833C6.17392 11.0362 6.81522 9.55247 7.95675 8.4585C9.09827 7.36454 10.6465 6.74996 12.2609 6.74996C13.8752 6.74996 15.4235 7.36454 16.565 8.4585C17.7065 9.55247 18.3478 11.0362 18.3478 12.5833V16.9583H6.17392V12.5833ZM12.2609 27.1666C11.7297 27.1636 11.2087 27.0273 10.7495 26.7715C10.2904 26.5157 9.90904 26.1491 9.64348 25.7083H14.8783C14.6127 26.1491 14.2314 26.5157 13.7722 26.7715C13.313 27.0273 12.792 27.1636 12.2609 27.1666ZM21.3913 22.7916H3.13044V21.3333C3.13044 20.9465 3.29076 20.5756 3.57615 20.3021C3.86153 20.0286 4.24859 19.875 4.65218 19.875H19.8696C20.2732 19.875 20.6602 20.0286 20.9456 20.3021C21.231 20.5756 21.3913 20.9465 21.3913 21.3333V22.7916Z" fill="white"/>
</svg>
