<svg width="21" height="22" viewBox="0 0 21 22" fill="none" xmlns="http://www.w3.org/2000/svg">
<path d="M7.79135 19.7436C8.08654 19.7436 8.36964 19.8625 8.57837 20.0741C8.7871 20.2856 8.90436 20.5726 8.90436 20.8718C8.90436 21.171 8.7871 21.458 8.57837 21.6696C8.36964 21.8811 8.08654 22 7.79135 22C7.49616 22 7.21307 21.8811 7.00434 21.6696C6.79561 21.458 6.67834 21.171 6.67834 20.8718C6.67834 20.5726 6.79561 20.2856 7.00434 20.0741C7.21307 19.8625 7.49616 19.7436 7.79135 19.7436ZM15.5824 19.7436C15.8776 19.7436 16.1607 19.8625 16.3694 20.0741C16.5782 20.2856 16.6954 20.5726 16.6954 20.8718C16.6954 21.171 16.5782 21.458 16.3694 21.6696C16.1607 21.8811 15.8776 22 15.5824 22C15.2872 22 15.0041 21.8811 14.7954 21.6696C14.5867 21.458 14.4694 21.171 14.4694 20.8718C14.4694 20.5726 14.5867 20.2856 14.7954 20.0741C15.0041 19.8625 15.2872 19.7436 15.5824 19.7436ZM1.66423 0.148006L1.7811 0.226979L3.68212 1.67107C4.00563 1.91712 4.25689 2.24787 4.40891 2.62778L4.4757 2.8207H18.7734C19.0752 2.82062 19.3738 2.88273 19.6511 3.00325C19.9284 3.12377 20.1787 3.30018 20.3867 3.52177C20.5947 3.74336 20.7561 4.0055 20.861 4.29227C20.966 4.57903 21.0123 4.88443 20.9972 5.18991L20.9827 5.35688L20.4741 9.48043C20.3215 10.7214 19.7663 11.8757 18.896 12.762C18.0256 13.6483 16.8894 14.2163 15.6659 14.3768L15.4144 14.4027L7.27492 15.0909L7.5643 16.359H17.2519C17.5356 16.3593 17.8085 16.4695 18.0148 16.6669C18.221 16.8643 18.3452 17.134 18.3618 17.4211C18.3784 17.7082 18.2863 17.9908 18.1042 18.2113C17.9221 18.4318 17.6639 18.5736 17.3822 18.6075L17.2519 18.6154H7.5643C7.09194 18.6155 6.6318 18.4633 6.25044 18.1807C5.86908 17.8982 5.58626 17.5001 5.4429 17.0438L5.39504 16.8667L2.34539 3.47505L0.445486 2.03096C0.228334 1.86598 0.0781269 1.62627 0.0231128 1.35691C-0.0319013 1.08754 0.0120684 0.807079 0.146753 0.56827C0.281437 0.329461 0.497556 0.148757 0.754465 0.0601428C1.01137 -0.0284715 1.29137 -0.0188908 1.5418 0.0870833L1.66423 0.148006ZM18.7734 5.07709H4.99436L6.76961 12.8684L15.2285 12.1542C15.9919 12.0899 16.7103 11.7613 17.2631 11.2238C17.816 10.6862 18.1696 9.97228 18.2648 9.20176L18.7734 5.07709Z" fill="white"/>
</svg>
