<svg width="25" height="25" viewBox="0 0 25 25" fill="none" xmlns="http://www.w3.org/2000/svg">
<path d="M12.664 0.832031C6.13985 0.832031 0.832031 6.13985 0.832031 12.664C0.832031 19.1881 6.13985 24.4959 12.664 24.4959C19.1881 24.4959 24.4959 19.1881 24.4959 12.664C24.4959 6.13985 19.1881 0.832031 12.664 0.832031ZM21.6906 17.7183L17.3761 17.8925L16.1254 16.1709L17.5253 11.8625L19.5486 11.2047L22.9379 13.8825C22.7754 15.2619 22.3417 16.558 21.69 17.7183H21.6906ZM7.95127 17.8925L3.6368 17.7183C2.98511 16.5586 2.55139 15.2624 2.38888 13.8825L5.77823 11.2047L7.80152 11.8625L9.20141 16.1709L7.95071 17.8925H7.95127ZM4.78544 10.1043L2.34284 12.0339C2.45266 10.2275 3.02227 8.54694 3.94351 7.10657L4.78544 10.1043ZM10.5591 15.5614L9.25854 11.5575L12.664 9.08327L16.0694 11.5575L14.7688 15.5614H10.5591ZM20.5425 10.1043L21.3844 7.10657C22.3057 8.54694 22.8758 10.228 22.9851 12.0339L20.5425 10.1043ZM20.2569 5.65011L19.0921 9.79763L17.0688 10.4554L13.4033 7.79209V5.66453L16.9923 3.27185C18.233 3.84645 19.3389 4.65732 20.2569 5.65011ZM15.2552 2.65289L12.6634 4.38056L10.0716 2.65289C10.9014 2.43769 11.7671 2.31123 12.6634 2.31123C13.5597 2.31123 14.4249 2.43769 15.2552 2.65289ZM8.33507 3.27241L11.9241 5.66508V7.79264L8.25853 10.456L6.23524 9.79819L5.07052 5.65066C5.98788 4.65843 7.09381 3.847 8.33452 3.27241H8.33507ZM4.6734 19.2402L7.79486 19.3661L8.87695 22.2901C7.22914 21.6395 5.78322 20.5858 4.6734 19.2402ZM10.649 22.8176L9.14761 18.7621L10.3983 17.0406H14.9285L16.1792 18.7621L14.6778 22.8176C14.0256 22.9468 13.3528 23.0178 12.6634 23.0178C11.974 23.0178 11.3007 22.9468 10.649 22.8176ZM16.451 22.2901L17.5331 19.3661L20.6545 19.2402C19.5453 20.5863 18.0988 21.6395 16.451 22.2901Z" fill="#7F4916"/>
</svg>
