<svg width="25" height="25" viewBox="0 0 25 25" fill="none" xmlns="http://www.w3.org/2000/svg">
<path d="M13.0058 0.848783C12.5088 0.822716 12.0113 0.827708 11.5199 0.859321C8.76731 1.04789 6.06241 2.19375 3.96426 4.2919C1.86611 6.39004 0.720255 9.09551 0.531683 11.8476C0.500069 12.3395 0.495081 12.8365 0.521148 13.3334C0.678107 16.1381 1.82951 18.9007 3.96426 21.036C6.09901 23.1708 8.86215 24.3222 11.6669 24.4791C12.1638 24.5052 12.6613 24.5002 13.1527 24.4686C15.9053 24.28 18.6102 23.1342 20.7084 21.036C22.8065 18.9379 23.9524 16.2324 24.141 13.4804C24.1726 12.9884 24.1776 12.4915 24.1515 11.9945C23.9945 9.18979 22.8431 6.4272 20.7084 4.2919C18.5736 2.15715 15.8105 1.00574 13.0058 0.848783ZM5.01028 19.99C3.15783 18.1376 2.15341 15.7516 2.00144 13.3184C4.43458 13.4704 6.82058 14.4748 8.67303 16.3273C10.5255 18.1797 11.5299 20.5657 11.6819 22.9988C9.24873 22.8469 6.86273 21.8425 5.01028 19.99ZM19.6618 19.99C17.8515 21.8003 15.5387 22.7947 13.1627 22.9833C13.0058 20.1786 11.8544 17.416 9.7196 15.2807C7.58485 13.1459 4.82171 11.9945 2.01697 11.8376C2.20554 9.46211 3.19943 7.14933 5.01028 5.33847C6.82058 3.52818 9.13337 2.53374 11.5094 2.34516C11.6663 5.1499 12.8177 7.91249 14.9525 10.0478C17.0872 12.1825 19.8504 13.334 22.6551 13.4909C22.4666 15.8664 21.4727 18.1792 19.6618 19.99ZM22.6707 12.0101C20.2375 11.8581 17.8515 10.8537 15.9991 9.00122C14.1466 7.14877 13.1422 4.76277 12.9902 2.32963C15.4234 2.4816 17.8094 3.48603 19.6618 5.33847C21.5143 7.19092 22.5187 9.57692 22.6707 12.0101Z" fill="#F9B829"/>
</svg>
