<svg width="25" height="25" viewBox="0 0 25 25" fill="none" xmlns="http://www.w3.org/2000/svg">
<path d="M12.6471 0.832031C6.12299 0.832031 0.815186 6.13985 0.815186 12.664C0.815186 19.1881 6.12299 24.4959 12.6471 24.4959C19.1712 24.4959 24.479 19.1881 24.479 12.664C24.479 6.13985 19.1712 0.832031 12.6471 0.832031ZM19.5678 15.5342C17.7492 13.9596 15.6316 12.8037 13.2727 12.0833C12.94 10.6446 12.8041 9.20418 12.8656 7.77601C15.3299 8.14983 17.6671 9.06885 19.656 10.4665C20.8984 11.3395 22.0015 12.3983 22.9521 13.6041C22.8168 15.0966 22.3631 16.4959 21.661 17.7388C21.022 16.9457 20.3321 16.1959 19.5672 15.5342H19.5678ZM8.30436 14.9191C7.39588 12.598 7.02316 10.1143 7.23946 7.69337C7.37368 6.18311 7.73807 4.70113 8.3049 3.27851C9.58998 2.68172 11.0126 2.33674 12.5157 2.31789C12.1491 3.26686 11.8629 4.24467 11.6721 5.2358C11.2184 7.59797 11.2761 10.0101 11.8307 12.4133C10.7514 13.4205 9.57169 14.2585 8.30381 14.9191H8.30436ZM22.9011 11.3112C22.1635 10.5553 21.3681 9.86197 20.5057 9.25632C18.306 7.71056 15.7187 6.70002 12.996 6.30124C13.0326 6.03835 13.0742 5.77601 13.1247 5.51478C13.3276 4.45931 13.6471 3.41994 14.0681 2.42049C18.6621 3.05555 22.296 6.70779 22.9011 11.3112ZM6.3454 4.46819C6.06088 5.48205 5.859 6.51478 5.76582 7.56137C5.52677 10.2397 5.94551 12.9857 6.96159 15.5431C6.71589 15.6429 6.46797 15.7377 6.21617 15.8248C5.19787 16.1776 4.13631 16.421 3.05922 16.5558C2.56893 15.3528 2.29327 14.0406 2.29327 12.664C2.29327 9.32731 3.88673 6.36281 6.34485 4.46819H6.3454ZM3.76082 17.9501C4.76193 17.7937 5.74862 17.553 6.70092 17.2225C8.97379 16.4349 11.0337 15.1781 12.8374 13.4959C14.2494 13.9274 15.5645 14.5297 16.7708 15.2974C15.2145 17.2447 13.2494 18.8098 11.0453 19.8326C9.67041 20.4715 8.20508 20.8969 6.68983 21.1171C5.50458 20.2796 4.50735 19.1992 3.76138 17.9496L3.76082 17.9501ZM12.6471 23.0173C11.2422 23.0173 9.9028 22.7333 8.68039 22.2241C9.70757 21.9629 10.7092 21.6201 11.6687 21.1748C14.1069 20.0428 16.2755 18.3073 17.9832 16.1482C18.1923 16.3112 18.3986 16.4782 18.6 16.6529C19.4125 17.3561 20.149 18.1548 20.8035 19.0184C18.9072 21.4471 15.9605 23.0173 12.6471 23.0173Z" fill="#F9B829"/>
</svg>
