<svg width="23" height="22" viewBox="0 0 23 22" fill="none" xmlns="http://www.w3.org/2000/svg">
<path d="M17.5416 12.7083C17.5416 13.189 17.3507 13.6501 17.0108 13.99C16.6708 14.3299 16.2098 14.5208 15.7291 14.5208C15.2484 14.5208 14.7874 14.3299 14.4475 13.99C14.1076 13.6501 13.9166 13.189 13.9166 12.7083C13.9166 12.2276 14.1076 11.7666 14.4475 11.4267C14.7874 11.0868 15.2484 10.8958 15.7291 10.8958C16.2098 10.8958 16.6708 11.0868 17.0108 11.4267C17.3507 11.7666 17.5416 12.2276 17.5416 12.7083Z" fill="#65727A"/>
<path fill-rule="evenodd" clip-rule="evenodd" d="M2.81571 3.92132L16.1074 0.123531C16.557 -0.00496968 17.0303 -0.0273367 17.49 0.0581908C17.9497 0.143718 18.3833 0.334805 18.7567 0.616403C19.13 0.898001 19.4328 1.26242 19.6413 1.68097C19.8499 2.09951 19.9584 2.56075 19.9583 3.02836V4.24999C20.5993 4.24999 21.214 4.5046 21.6672 4.95781C22.1204 5.41103 22.375 6.02572 22.375 6.66666V18.75C22.375 19.3909 22.1204 20.0056 21.6672 20.4588C21.214 20.912 20.5993 21.1667 19.9583 21.1667H3.04167C2.40073 21.1667 1.78604 20.912 1.33283 20.4588C0.879612 20.0056 0.625 19.3909 0.625 18.75V6.66666C0.625 5.40395 1.63396 4.25845 2.81571 3.92132ZM16.772 2.44716C16.8618 2.42157 16.9563 2.41715 17.0481 2.43424C17.1399 2.45134 17.2265 2.48949 17.3011 2.54569C17.3757 2.60189 17.4362 2.67461 17.478 2.75815C17.5197 2.84169 17.5415 2.93377 17.5417 3.02716V4.24999H10.4608L16.772 2.44716ZM3.04167 6.66666H19.9583V18.75H3.04167V6.66666Z" fill="#65727A"/>
</svg>
